HIERARCHY
ROOT Hips
{
	OFFSET -3.958830 18.904000 13.208200
	CHANNELS 6 Xposition Yposition Zposition Zrotation Yrotation Xrotation 
	JOINT LHipJoint
	{
		OFFSET 0.000000 0.000000 0.000000
		CHANNELS 3 Zrotation Yrotation Xrotation
		JOINT LeftUpLeg
		{
			OFFSET 1.800000 -1.400000 0.085000
			CHANNELS 3 Zrotation Yrotation Xrotation
			JOINT LeftLeg
			{
				OFFSET 2.215000 -6.000000 0.000000
				CHANNELS 3 Zrotation Yrotation Xrotation
				JOINT LeftFoot
				{
					OFFSET 2.500000 -6.900000 0.000000
					CHANNELS 3 Zrotation Yrotation Xrotation
					JOINT LeftToeBase
					{
						OFFSET 0.200000 -0.500000 1.950000
						CHANNELS 3 Zrotation Yrotation Xrotation
						End Site
						{
							OFFSET 0.000000 0.000000 0.000000
						}
					}
				}
			}
		}
	}
	JOINT RHipJoint
	{
		OFFSET 0.000000 0.000000 0.000000
		CHANNELS 3 Zrotation Yrotation Xrotation
		JOINT RightUpLeg
		{
			OFFSET -1.800000 -1.400000 0.085000
			CHANNELS 3 Zrotation Yrotation Xrotation
			JOINT RightLeg
			{
				OFFSET -2.215000 -6.000000 0.000000
				CHANNELS 3 Zrotation Yrotation Xrotation
				JOINT RightFoot
				{
					OFFSET -2.500000 -6.900000 0.000000
					CHANNELS 3 Zrotation Yrotation Xrotation
					JOINT RightToeBase
					{
						OFFSET -0.200000 -0.500000 1.950000
						CHANNELS 3 Zrotation Yrotation Xrotation
						End Site
						{
							OFFSET 0.000000 0.000000 0.000000
						}
					}
				}
			}
		}
	}
	JOINT LowerBack
	{
		OFFSET 0.000000 0.000000 0.000000
		CHANNELS 3 Zrotation Yrotation Xrotation
		JOINT Spine
		{
			OFFSET -0.087000 1.940000 -0.288900
			CHANNELS 3 Zrotation Yrotation Xrotation
			JOINT Spine1
			{
				OFFSET 0.000000 1.950000 0.060000
				CHANNELS 3 Zrotation Yrotation Xrotation
				JOINT Neck
				{
					OFFSET 0.000000 0.000000 0.000000
					CHANNELS 3 Zrotation Yrotation Xrotation
					JOINT Neck1
					{
						OFFSET 0.000000 1.600000 0.340000
						CHANNELS 3 Zrotation Yrotation Xrotation
						JOINT Head
						{
							OFFSET 0.000000 1.667000 -0.240000
							CHANNELS 3 Zrotation Yrotation Xrotation
							End Site
							{
								OFFSET 0.000000 0.000000 0.000000
							}
						}
					}
				}
				JOINT LeftShoulder
				{
					OFFSET 0.000000 0.000000 0.000000
					CHANNELS 3 Zrotation Yrotation Xrotation
					JOINT LeftArm
					{
						OFFSET 2.700000 1.550000 -0.730000
						CHANNELS 3 Zrotation Yrotation Xrotation
						JOINT LeftForeArm
						{
							OFFSET 5.450000 0.000000 0.000000
							CHANNELS 3 Zrotation Yrotation Xrotation
							JOINT LeftHand
							{
								OFFSET 3.450000 0.000000 0.000000
								CHANNELS 3 Zrotation Yrotation Xrotation
								JOINT LeftHandIndex1
								{
									OFFSET 0.750000 0.000000 0.000000
									CHANNELS 3 Zrotation Yrotation Xrotation
									End Site
									{
										OFFSET 0.000000 0.000000 0.000000
									}
								}
							}
						}
					}
				}
				JOINT RightShoulder
				{
					OFFSET 0.000000 0.000000 0.000000
					CHANNELS 3 Zrotation Yrotation Xrotation
					JOINT RightArm
					{
						OFFSET -2.700000 1.550000 -0.730000
						CHANNELS 3 Zrotation Yrotation Xrotation
						JOINT RightForeArm
						{
							OFFSET -5.450000 0.000000 0.000000
							CHANNELS 3 Zrotation Yrotation Xrotation
							JOINT RightHand
							{
								OFFSET -3.450000 0.000000 0.000000
								CHANNELS 3 Zrotation Yrotation Xrotation
								JOINT RightHandIndex1
								{
									OFFSET -0.750000 0.000000 0.000000
									CHANNELS 3 Zrotation Yrotation Xrotation
									End Site
									{
										OFFSET 0.000000 0.000000 0.000000
									}
								}
							}
						}
					}
				}
			}
		}
	}
}
MOTION
Frames: 7
Frame Time: 0.016667
-1.204350 16.800560 -1.936890 -6.336472 -20.606556 -3.955034 -15.370157 14.436027 2.576187 23.014495 -3.007282 -1.378877 3.203557 4.063941 8.872619 1.402056 4.290452 3.446109 2.102050 1.405280 2.560100 17.957914 -10.030561 2.756311 -6.600552 0.214769 -3.825809 11.102324 -5.097977 8.116700 -1.238363 -3.856315 2.467229 0.163730 -0.785220 1.416340 -2.476609 -4.997242 -7.426536 2.934755 -0.619695 9.870199 12.520412 -3.825921 14.557275 -9.893803 -0.467519 -12.809562 -6.604968 9.230488 37.394983 -2.573010 17.029530 -7.551450 -7.033453 -21.873142 4.828465 8.336438 -26.726787 -3.683507 9.204434 0.225894 -0.623193 -3.290767 4.081946 0.149010 -0.143170 1.047430 0.318220 26.747017 17.205492 9.401807 44.625374 0.957996 -8.949144 -6.033329 24.287069 -3.619113 3.100774 -3.014875 1.281570 -1.365040 -1.820450 0.003590 
-1.205020 16.793170 -1.911050 -6.305027 -20.616880 -3.910977 -15.349533 14.495874 2.516406 22.734639 -3.017250 -1.479471 3.522678 4.035970 9.613255 1.395685 4.270494 3.466102 2.096710 1.404890 2.555650 17.975706 -10.066968 2.729409 -6.737599 0.165364 -4.004354 11.033375 -5.205973 8.697897 -1.227591 -3.889839 2.465572 0.170170 -0.770240 1.417670 -2.531198 -5.049569 -7.328163 3.028904 -0.933934 9.578997 11.880303 -3.922854 13.617000 -10.025898 -0.170536 -11.987533 -6.070600 9.247229 36.851329 -3.314860 17.636920 -7.154970 -7.014125 -20.378850 4.435446 8.286777 -27.748291 -3.844769 9.479003 0.056790 -0.643464 -3.280359 4.110716 0.131190 -0.118310 1.037290 0.333770 26.926533 15.437101 8.565806 45.396002 0.727489 -9.003783 -5.600700 24.468386 -3.589632 3.102273 -3.019070 1.271830 -1.368760 -1.835320 0.006590 
-1.206290 16.807460 -1.905260 -5.550437 -20.628451 -4.496043 -15.414110 14.660015 2.491735 21.635591 -2.906538 -1.122108 4.263028 3.844376 10.056840 1.375064 4.177802 3.479194 2.116050 1.421370 2.575840 17.886239 -10.044696 2.757390 -7.854160 0.037865 -3.500568 11.661891 -5.346777 8.291236 -1.267288 -3.936630 2.439410 0.168890 -0.822810 1.417900 -2.269637 -5.350673 -7.372468 1.165651 -0.588974 9.864230 12.298652 -3.483991 13.199575 -9.883843 -0.291358 -11.993929 -7.038807 9.529405 38.408208 -3.230860 17.681930 -8.650640 -8.094891 -20.283567 3.982255 8.367249 -28.504291 -4.858093 12.017491 -0.489704 -0.973772 -3.256000 4.101909 0.186350 -0.163720 1.081570 0.320270 27.892740 15.514449 9.208578 45.589488 -0.721063 -10.168148 -7.450941 26.074182 -4.065782 3.080083 -3.025476 1.280320 -1.374390 -1.837550 -0.011070 
-1.190330 16.805550 -1.915520 -5.572987 -20.964927 -4.742471 -15.382785 14.703295 2.523254 21.621500 -2.886207 -0.910777 4.013550 3.941745 10.417080 1.418218 4.156245 3.462387 2.159730 1.481360 2.597090 17.893399 -10.101643 2.753828 -7.856938 0.094432 -3.937385 11.336968 -5.331206 8.902585 -1.283255 -3.859128 2.448792 0.179500 -0.874950 1.425120 -2.301040 -5.335824 -7.427773 1.541778 -0.325661 10.542730 11.844943 -2.977702 13.077097 -9.826014 -0.824182 -12.360090 -8.569953 9.986379 39.223225 -2.583900 17.468540 -9.423270 -9.092558 -20.677693 3.886816 7.395209 -28.448731 -6.290306 17.383665 -2.703061 -1.732521 -3.227247 4.159401 0.194590 -0.206830 1.128700 0.327290 28.762031 16.183330 9.828827 45.439101 -2.032009 -10.041979 -6.800538 24.650492 -3.741817 3.114841 -3.037422 1.324830 -1.398900 -1.868700 0.002810 
-1.189610 16.792870 -1.919860 -5.840368 -21.143035 -4.192402 -15.272395 14.617604 2.498135 21.704286 -3.018271 -1.118761 3.983465 3.893108 10.456090 1.456129 4.097393 3.492292 2.211330 1.529260 2.620550 18.000038 -10.183802 2.778921 -7.597017 0.110005 -4.285738 10.888340 -5.137568 8.620117 -1.292238 -3.804931 2.471366 0.192760 -0.868060 1.441800 -2.635172 -5.086900 -7.369149 3.147032 -0.819337 10.051136 9.621830 -2.943841 12.113534 -10.032517 -1.096340 -12.081349 -9.229608 10.320388 38.906463 -1.151100 16.986000 -8.559000 -10.745592 -20.409180 3.471306 6.930080 -28.786764 -7.652851 22.125518 -5.177370 -2.622043 -3.217711 4.226298 0.165030 -0.208660 1.134550 0.363980 30.658701 15.586753 9.762743 46.163998 -2.900862 -10.145573 -7.773277 24.164411 -3.915274 3.143004 -3.088705 1.361970 -1.414240 -1.912310 0.030480 
-1.197650 16.793120 -1.912390 -5.816333 -21.571408 -3.956235 -15.270609 14.603814 2.514246 21.845317 -3.051639 -0.913681 3.880929 3.912273 10.204162 1.419126 4.151966 3.483542 2.212470 1.518610 2.617910 18.006774 -10.187336 2.733929 -7.708814 0.125281 -4.610130 10.680727 -5.164522 9.068076 -1.278613 -3.797163 2.474401 0.207720 -0.854820 1.434550 -2.646439 -5.096914 -7.316595 3.115508 -0.604198 9.370062 8.887431 -2.522983 11.988704 -10.084973 -0.855145 -11.664147 -9.034542 10.112115 38.935132 -0.978550 16.785050 -8.544960 -11.922146 -20.452749 2.844318 5.542319 -30.782841 -8.761018 27.506015 -5.362844 -3.594412 -3.253751 4.220102 0.184990 -0.200340 1.120160 0.369510 31.787485 15.197966 9.992805 46.782046 -3.562843 -11.001167 -9.711226 25.836148 -4.500828 3.101103 -3.122116 1.331960 -1.400180 -1.907420 0.015260 
-1.201650 16.789980 -1.899700 -6.062482 -22.061850 -4.093661 -15.281234 14.575864 2.529026 22.201545 -3.069706 -0.051622 3.885679 3.975303 9.896227 1.466508 4.210574 3.460246 2.232710 1.547270 2.644910 18.007674 -10.138565 2.748059 -7.751980 -0.034151 -3.866004 10.757670 -5.113934 8.272997 -1.321827 -3.810574 2.476383 0.203480 -0.893420 1.438010 -2.637909 -5.127856 -7.341159 3.419749 -0.626254 9.073320 8.307637 -2.403993 12.493435 -9.756704 -0.708214 -11.843146 -9.523339 10.094516 40.629413 -1.534210 17.047520 -9.381490 -12.975786 -21.187145 2.920542 3.624073 -31.187026 -9.858706 34.055139 -6.168186 -4.796250 -3.247116 4.218948 0.203330 -0.225480 1.162180 0.369360 32.044152 15.649809 10.301263 46.712088 -3.712640 -10.991968 -9.197716 25.863850 -4.362263 3.106423 -3.100410 1.354730 -1.405300 -1.927340 0.013980 
